<svg xmlns="http://www.w3.org/2000/svg" fill="#000000" height="800" width="800" viewBox="0 0 29.536 29.536" ><path d="M14.768 0A14.77 14.77 0 0 0 0 14.768a14.77 14.77 0 0 0 14.768 14.767 14.77 14.77 0 0 0 14.768-14.767A14.77 14.77 0 0 0 14.768 0zm0 27.126A12.36 12.36 0 0 1 2.407 14.767c0-6.828 5.533-12.362 12.361-12.362S27.127 7.94 27.127 14.767a12.36 12.36 0 0 1-12.359 12.359zm-.383-7.789c-1.338 0-2.289.951-2.289 2.34 0 1.336.926 2.339 2.289 2.339 1.414 0 2.314-1.003 2.314-2.339-.027-1.389-.928-2.34-2.314-2.34zm.357-13.245c-1.824 0-3.34.513-4.293 1.053l.875 2.804c.668-.462 1.697-.772 2.545-.772 1.285.027 1.879.644 1.879 1.543 0 .85-.67 1.697-1.494 2.701-1.156 1.364-1.594 2.701-1.516 4.012l.025.669h3.42v-.463c-.025-1.158.387-2.162 1.311-3.215.979-1.08 2.211-2.366 2.211-4.321 0-2.135-1.566-4.011-4.963-4.011z"/></svg>
